<svg viewBox="0 0 495 212" xmlns="http://www.w3.org/2000/svg" xmlns:xlink="http://www.w3.org/1999/xlink"><linearGradient id="a" x1="102.126" x2="131.014" xlink:href="none" y1="12.571" y2="2.354"><stop offset="0" stop-color="#f69923"/><stop offset=".31" stop-color="#f79a23"/><stop offset=".84" stop-color="#e97826"/></linearGradient><linearGradient id="b" x1="46.763" x2="97.82" xlink:href="none" y1="149.192" y2="16.6"><stop offset="0" stop-color="#9e2064"/><stop offset=".32" stop-color="#9e2064"/><stop offset=".63" stop-color="#c92037"/><stop offset=".75" stop-color="#cd2335"/><stop offset="1" stop-color="#e97826"/></linearGradient><linearGradient id="c" x1="66.225" x2="96.65" xlink:href="none" y1="138.308" y2="59.296"><stop offset="0" stop-color="#282662"/><stop offset=".1" stop-color="#662e8d"/><stop offset=".79" stop-color="#9f2064"/><stop offset=".95" stop-color="#cd2032"/></linearGradient><linearGradient id="d" x1="48.395" x2="99.452" xlink:href="none" y1="141.27" y2="8.678"><stop offset="0" stop-color="#9e2064"/><stop offset=".32" stop-color="#9e2064"/><stop offset=".63" stop-color="#c92037"/><stop offset=".75" stop-color="#cd2335"/><stop offset="1" stop-color="#e97826"/></linearGradient><linearGradient id="e" x1="53.912" x2="80.745" xlink:href="none" y1="132.29" y2="62.609"><stop offset="0" stop-color="#282662"/><stop offset=".1" stop-color="#662e8d"/><stop offset=".79" stop-color="#9f2064"/><stop offset=".95" stop-color="#cd2032"/></linearGradient><linearGradient id="f" x1="62.118" x2="113.175" xlink:href="none" y1="146.554" y2="13.962"><stop offset="0" stop-color="#9e2064"/><stop offset=".32" stop-color="#9e2064"/><stop offset=".63" stop-color="#c92037"/><stop offset=".75" stop-color="#cd2335"/><stop offset="1" stop-color="#e97826"/></linearGradient><linearGradient id="g" x1="58.269" x2="109.326" xlink:href="none" y1="154.517" y2="21.925"><stop offset="0" stop-color="#9e2064"/><stop offset=".32" stop-color="#9e2064"/><stop offset=".63" stop-color="#c92037"/><stop offset=".75" stop-color="#cd2335"/><stop offset="1" stop-color="#e97826"/></linearGradient><linearGradient id="h" x1="66.199" x2="117.257" xlink:href="none" y1="148.125" y2="15.533"><stop offset="0" stop-color="#9e2064"/><stop offset=".32" stop-color="#9e2064"/><stop offset=".63" stop-color="#c92037"/><stop offset=".75" stop-color="#cd2335"/><stop offset="1" stop-color="#e97826"/></linearGradient><linearGradient id="i" x1="65.732" x2="116.79" xlink:href="none" y1="147.946" y2="15.354"><stop offset="0" stop-color="#9e2064"/><stop offset=".32" stop-color="#9e2064"/><stop offset=".63" stop-color="#c92037"/><stop offset=".75" stop-color="#cd2335"/><stop offset="1" stop-color="#e97826"/></linearGradient><g fill-rule="nonzero"><path d="m108.191.84c-2.117 1.453-5.528 5.393-9.536 11.036l4.542 7.311c2.545-4.231 5.16-8.06 7.839-11.36.206-.262.314-.387.314-.387l-.314.387c-.864 1.096-3.475 4.603-7.306 11.474 4.11-.49 10.388-1.769 15.496-3.01.945-8.719-2.372-12.453-2.372-12.453s-4.302-5.997-8.663-2.998z" fill="url(#a)"/><g fill="#be202e"><path d="m99.076 65.493-1.565.385.79-.178z"/><path d="m99.076 65.493-1.565.385.79-.178z" fill-opacity=".35"/><path d="m99.964 58.768c.076-.009.158-.031.241-.047l.993-.249z"/><path d="m99.964 58.768c.076-.009.158-.031.241-.047l.993-.249z" fill-opacity=".35"/></g><path d="m92.696 39.609 3.25-6.945 3.489-6.828.207-.392 3.559-6.257-4.543-7.311-.838 1.191-3.277 4.894-3.869 6.215-3.649 6.3-3.101 5.714-.116.219 5.944 9.974z" fill="url(#b)"/><path d="m72.876 99.475-1.686 5.965-.024.089-.239.859-1.451 5.393c1.59.596 2.955 2.361 4.271 4.381a8.46 8.46 0 0 0 -3.131-5.61c7.621-.18 14.036-2.551 17.038-8.339.268-.517.509-1.055.72-1.628-1.403 2.056-3.253 3.016-6.858 3.061-.006.003-.016.007-.023.011.007-.004.017-.008.023-.011 5.122-2.731 7.618-5.183 9.702-9.108.495-.931.967-1.943 1.445-3.063-4.296 5.065-9.558 6.785-15.27 6.148l-4.198.754z" fill="url(#c)"/><path d="m74.197 89.864 2.329-7.359 2.369-7.166 2.499-7.224 2.667-7.346 2.761-7.199 1.024-2.569 1.804-4.387.101-.235-5.943-9.973-.227.437-3.204 6.356-3.1 6.654-2.471 5.738-.474 1.166-2.634 7.006-2.31 7.259-1.174 4.357-.805 3.567-1.442 8.332 5.973 10.018 1.751-5.792z" fill="url(#d)"/><path d="m65.922 87.652c-.43 3.367-.671 6.707-.681 10.012.001.117-.005.231-.003.348-1.822-2.516-6.392-4.78-6.38-4.757 3.459 4.343 6.157 8.705 6.819 13.123-1.66.462-4.001.122-6.735-.677 2.955 2.362 5.091 2.924 5.916 3.057-2.542.336-5.08 2.273-7.62 4.478 3.807-1.868 6.928-2.718 9.23-2.361-2.894 10.425-5.724 21.908-8.507 34.085 1.082-.403 1.69-1.19 1.99-2.221.494-2.204 3.781-16.669 9.178-35.756l.466-1.637.132-.457 1.782-6.132.423-1.427.008-.027-5.966-10.016z" fill="url(#e)"/><path d="m90.624 47.199-.389.959-1.181 2.957-1.298 3.343-.663 1.738-2.016 5.436-2.54 7.16-2.475 7.326-2.392 7.415-2.16 7-.103.348-2.164 7.329-.048.17 4.198-.754-.256-.026c5.016-.977 11.478-5.221 15.503-10.186 1.856-2.288 3.498-4.949 4.975-8.033 1.099-2.296 2.105-4.827 3.037-7.616.815-2.437 1.577-5.068 2.29-7.913-1.119.693-2.419 1.234-3.865 1.648l-.775.207a19.85 19.85 0 0 1 -.8.182c4.6-2.143 7.335-5.852 9.202-10.291-1.183.931-3.123 2.178-5.503 2.877-.324.096-.657.176-.993.249l-.25.054c1.6-.806 2.928-1.666 4.064-2.654.243-.211.479-.428.704-.654a14.73 14.73 0 0 0 .976-1.07c.198-.238.388-.482.572-.735a16.6 16.6 0 0 0 1.196-1.908c.113-.209.222-.42.33-.638l.392-.923a50.68 50.68 0 0 0 1.36-3.655c.174-.534.324-1.026.449-1.482l.145-.529c.132-.51.238-.962.317-1.359a13.05 13.05 0 0 0 .215-1.403c-.151.138-.326.277-.524.414-1.365.95-3.755 1.891-5.7 2.389l3.854-.693-3.854.693c-.03.009-.059.014-.089.023l-.589.137c.035-.019.064-.037.1-.053l-13.189 2.373z" fill="url(#f)"/><path d="m103.734 19.304-3.433 6.473-.195.384-3.351 6.929-3.149 7.015-2.916 6.942 13.189-2.373c3.748-2.047 5.368-3.777 6.888-6.222l1.203-2.103 3.432-7.078 2.507-6.703.93-3.598.397-2.673c-5.114 1.238-11.393 2.52-15.502 3.007z" fill="url(#g)"/><g fill="#be202e"><path d="m98.301 65.7-.8.182z"/><path d="m98.301 65.7-.8.182z" fill-opacity=".35"/></g><path d="m98.301 65.7-.8.182z" fill="url(#h)"/><g fill="#be202e"><path d="m99.951 58.775.251-.054z"/><path d="m99.951 58.775.251-.054z" fill-opacity=".35"/></g><path d="m99.951 58.775.251-.054z" fill="url(#i)"/></g><g font-family="AmericanTypewriter, American Typewriter, serif"><text fill="#f79a23" font-size="155" x="132.894" y="117.218">PDF</text><text fill="#6b2d89" font-size="86" x="-3" y="195.794">Compressor</text></g></svg>
