<svg viewBox="0 0 495 225" xmlns="http://www.w3.org/2000/svg" xmlns:xlink="http://www.w3.org/1999/xlink"><linearGradient id="a" x1="84.823" x2="131.932" xlink:href="none" y1="19.081" y2="5.983"><stop offset="0" stop-color="#f69923"/><stop offset=".31" stop-color="#f79a23"/><stop offset=".84" stop-color="#e97826"/></linearGradient><linearGradient id="b" x1="-18.291" x2="77.526" xlink:href="none" y1="230.511" y2="25.025"><stop offset="0" stop-color="#9e2064"/><stop offset=".32" stop-color="#9e2064"/><stop offset=".63" stop-color="#c92037"/><stop offset=".75" stop-color="#cd2335"/><stop offset="1" stop-color="#e97826"/></linearGradient><linearGradient id="c" x1="13.886" x2="70.983" xlink:href="none" y1="215.316" y2="92.866"><stop offset="0" stop-color="#282662"/><stop offset=".1" stop-color="#662e8d"/><stop offset=".79" stop-color="#9f2064"/><stop offset=".95" stop-color="#cd2032"/></linearGradient><linearGradient id="d" x1="-14.824" x2="80.993" xlink:href="none" y1="218.077" y2="12.591"><stop offset="0" stop-color="#9e2064"/><stop offset=".32" stop-color="#9e2064"/><stop offset=".63" stop-color="#c92037"/><stop offset=".75" stop-color="#cd2335"/><stop offset="1" stop-color="#e97826"/></linearGradient><linearGradient id="e" x1="-5.056" x2="45.299" xlink:href="none" y1="204.387" y2="96.398"><stop offset="0" stop-color="#282662"/><stop offset=".1" stop-color="#662e8d"/><stop offset=".79" stop-color="#9f2064"/><stop offset=".95" stop-color="#cd2032"/></linearGradient><linearGradient id="f" x1="6.443" x2="102.26" xlink:href="none" y1="227.994" y2="22.508"><stop offset="0" stop-color="#9e2064"/><stop offset=".32" stop-color="#9e2064"/><stop offset=".63" stop-color="#c92037"/><stop offset=".75" stop-color="#cd2335"/><stop offset="1" stop-color="#e97826"/></linearGradient><linearGradient id="g" x1="-.557" x2="95.26" xlink:href="none" y1="240.248" y2="34.762"><stop offset="0" stop-color="#9e2064"/><stop offset=".32" stop-color="#9e2064"/><stop offset=".63" stop-color="#c92037"/><stop offset=".75" stop-color="#cd2335"/><stop offset="1" stop-color="#e97826"/></linearGradient><linearGradient id="h" x1="12.768" x2="108.585" xlink:href="none" y1="230.943" y2="25.457"><stop offset="0" stop-color="#9e2064"/><stop offset=".32" stop-color="#9e2064"/><stop offset=".63" stop-color="#c92037"/><stop offset=".75" stop-color="#cd2335"/><stop offset="1" stop-color="#e97826"/></linearGradient><linearGradient id="i" x1="12.045" x2="107.861" xlink:href="none" y1="230.605" y2="25.119"><stop offset="0" stop-color="#9e2064"/><stop offset=".32" stop-color="#9e2064"/><stop offset=".63" stop-color="#c92037"/><stop offset=".75" stop-color="#cd2335"/><stop offset="1" stop-color="#e97826"/></linearGradient><g fill-rule="nonzero"><path d="m95.763 1.071c-3.53 2.081-9.391 7.98-16.391 16.524l6.431 12.137c4.514-6.457 9.097-12.265 13.723-17.227.357-.394.543-.58.543-.58l-.543.58c-1.495 1.651-6.036 6.947-12.887 17.467 6.595-.331 16.731-1.677 24.998-3.093 2.46-13.777-2.411-20.086-2.411-20.086s-6.191-10.018-13.463-5.722z" fill="url(#a)"/><g fill="#be202e"><path d="m74.166 102.998-2.534.442 1.277-.197z"/><path d="m74.166 102.998-2.534.442 1.277-.197z" fill-opacity=".35"/><path d="m76.316 92.389c.123-.006.256-.032.389-.048l1.608-.288z"/><path d="m76.316 92.389c.123-.006.256-.032.389-.048l1.608-.288z" fill-opacity=".35"/></g><path d="m66.846 61.092a391.89 391.89 0 0 1 5.936-10.7 308.63 308.63 0 0 1 6.303-10.487l.372-.602c2.098-3.321 4.216-6.515 6.351-9.571l-6.431-12.137-1.464 1.804c-1.852 2.311-3.779 4.797-5.754 7.432-2.225 2.97-4.514 6.143-6.841 9.47a390.15 390.15 0 0 0 -6.5 9.63l-5.563 8.757-.207.335 8.368 16.53z" fill="url(#b)"/><path d="m28.73 154.225-3.337 9.311-.048.138-.474 1.342-2.901 8.427c2.464 1.123 4.445 4.083 6.319 7.442a13.49 13.49 0 0 0 -4.371-9.273c12.153.548 22.625-2.524 28.038-11.409a22.27 22.27 0 0 0 1.326-2.512c-2.459 3.119-5.51 4.445-11.254 4.12-.01.005-.026.011-.037.016.011-.005.027-.011.037-.016 8.454-3.785 12.697-7.415 16.444-13.436.889-1.427 1.752-2.987 2.635-4.717-7.394 7.591-15.959 9.753-24.982 8.113l-6.766.74z" fill="url(#c)"/><path d="m31.887 139.07 4.514-11.462 4.557-11.147 4.77-11.227 5.052-11.403 5.185-11.158 1.911-3.976 3.354-6.788.186-.362-8.368-16.529-.41.671-5.797 9.768c-1.927 3.359-3.817 6.782-5.664 10.253l-4.563 8.864-.883 1.804c-1.826 3.753-3.471 7.379-4.962 10.865a220.08 220.08 0 0 0 -4.471 11.302c-.857 2.353-1.635 4.626-2.348 6.809l-1.672 5.589c-1.251 4.381-2.326 8.752-3.21 13.107l8.411 16.603 3.423-9.028z" fill="url(#d)"/><path d="m18.957 134.64c-1.054 5.313-1.805 10.605-2.183 15.864-.011.187-.032.368-.043.554-2.624-4.206-9.651-8.31-9.635-8.273 5.031 7.293 8.848 14.533 9.417 21.64-2.693.554-6.383-.245-10.647-1.815 4.445 4.083 7.783 5.211 9.082 5.515-4.083.255-8.336 3.061-12.622 6.292 6.266-2.555 11.329-3.567 14.954-2.747-5.749 16.279-11.515 34.251-17.28 53.33 1.767-.522 2.821-1.709 3.412-3.316 1.028-3.455 7.847-26.122 18.531-55.918l.921-2.555.261-.713 3.508-9.566.83-2.226c.006-.015.011-.031.016-.042l-8.4-16.599z" fill="url(#e)"/><path d="m62.715 72.947-.724 1.486-2.204 4.578-2.433 5.179-1.245 2.694-3.806 8.432-4.829 11.121-4.743 11.392-4.621 11.541-4.205 10.908-.202.543-4.249 11.429-.095.266 6.766-.74-.405-.069c8.092-1.006 18.845-7.053 25.797-14.517 3.205-3.439 6.112-7.495 8.8-12.244 2.002-3.534 3.881-7.452 5.669-11.791 1.565-3.79 3.067-7.894 4.515-12.345-1.858.98-3.988 1.698-6.335 2.199l-1.257.245c-.425.074-.857.143-1.293.202 7.559-2.907 12.318-8.512 15.778-15.374-1.985 1.352-5.211 3.125-9.076 3.976a22.12 22.12 0 0 1 -1.608.288c-.138.021-.271.043-.404.058 2.635-1.107 4.844-2.331 6.761-3.779.409-.309.809-.628 1.192-.964a23.34 23.34 0 0 0 1.671-1.597 21.87 21.87 0 0 0 .991-1.107c.75-.894 1.453-1.858 2.113-2.907a34.78 34.78 0 0 0 .596-.979l.724-1.427c1.054-2.118 1.895-4.008 2.566-5.669.336-.831.628-1.597.878-2.311l.288-.825c.266-.798.484-1.506.655-2.129.255-.932.41-1.672.495-2.209a8.13 8.13 0 0 1 -.879.601c-2.278 1.363-6.185 2.598-9.337 3.178l6.213-.681-6.213.681c-.048.011-.096.016-.144.027l-.952.154c.058-.026.106-.053.165-.074l-21.257 2.332z" fill="url(#f)"/><path d="m86.644 29.977c-1.89 2.901-3.955 6.196-6.175 9.928l-.352.591c-1.916 3.231-3.955 6.777-6.095 10.663a443.4 443.4 0 0 0 -5.781 10.822l-5.403 10.732 21.256-2.331c6.191-2.848 8.959-5.425 11.648-9.151a105.6 105.6 0 0 0 2.145-3.216c2.182-3.407 4.322-7.16 6.239-10.891 1.847-3.604 3.476-7.176 4.727-10.397.793-2.05 1.432-3.955 1.874-5.627.389-1.475.692-2.875.926-4.211-8.278 1.411-18.413 2.763-25.009 3.088z" fill="url(#g)"/><g fill="#be202e"><path d="m72.909 103.243-1.293.202z"/><path d="m72.909 103.243-1.293.202z" fill-opacity=".35"/></g><path d="m72.909 103.243-1.293.202z" fill="url(#h)"/><g fill="#be202e"><path d="m76.295 92.399.405-.058z"/><path d="m76.295 92.399.405-.058z" fill-opacity=".35"/></g><path d="m76.295 92.399.405-.058z" fill="url(#i)"/></g><g font-family="AmericanTypewriter, American Typewriter, serif"><text fill="#f79a23" font-size="138.336" x="129.632" y="106.412">PyDF</text><text fill="#6b2d89" font-size="78.125" x="129.153" y="197.427">Compress</text></g></svg>